# Max2Obj Version 4.0 Mar 10th, 2001
#
# object Sphere01 to come ...
#
v  -0.4 -0.7 40.0
v  -0.4 19.3 34.7
v  -10.4 16.6 34.7
v  -17.7 9.3 34.7
v  -20.4 -0.7 34.7
v  -17.7 -10.7 34.7
v  -10.4 -18.1 34.7
v  -0.4 -20.7 34.7
v  9.6 -18.1 34.7
v  17.0 -10.7 34.7
v  19.6 -0.7 34.7
v  17.0 9.3 34.7
v  9.6 16.6 34.7
v  -0.4 33.9 20.0
v  -17.7 29.3 20.0
v  -30.4 16.6 20.0
v  -35.0 -0.7 20.0
v  -30.4 -18.1 20.0
v  -17.7 -30.8 20.0
v  -0.4 -35.4 20.0
v  17.0 -30.8 20.0
v  29.6 -18.1 20.0
v  34.3 -0.7 20.0
v  29.6 16.6 20.0
v  17.0 29.3 20.0
v  -0.4 39.3 -0.0
v  -20.4 33.9 -0.0
v  -35.0 19.3 -0.0
v  -40.4 -0.7 -0.0
v  -35.0 -20.7 -0.0
v  -20.4 -35.4 -0.0
v  -0.4 -40.8 -0.0
v  19.6 -35.4 -0.0
v  34.3 -20.7 -0.0
v  39.7 -0.7 -0.0
v  34.3 19.3 -0.0
v  19.6 33.9 -0.0
v  -0.4 33.9 -20.0
v  -17.7 29.3 -20.0
v  -30.4 16.6 -20.0
v  -35.0 -0.7 -20.0
v  -30.4 -18.1 -20.0
v  -17.7 -30.8 -20.0
v  -0.4 -35.4 -20.0
v  17.0 -30.8 -20.0
v  29.6 -18.1 -20.0
v  34.3 -0.7 -20.0
v  29.6 16.6 -20.0
v  17.0 29.3 -20.0
v  -0.4 19.3 -34.7
v  -10.4 16.6 -34.7
v  -17.7 9.3 -34.7
v  -20.4 -0.7 -34.7
v  -17.7 -10.7 -34.7
v  -10.4 -18.1 -34.7
v  -0.4 -20.7 -34.7
v  9.6 -18.1 -34.7
v  17.0 -10.7 -34.7
v  19.6 -0.7 -34.7
v  17.0 9.3 -34.7
v  9.6 16.6 -34.7
v  -0.4 -0.7 -40.0
# 62 vertices
vt  0.5 0.5 1.0
vt  0.5 0.7 0.9
vt  0.4 0.7 0.9
vt  0.3 0.6 0.9
vt  0.3 0.5 0.9
vt  0.3 0.4 0.9
vt  0.4 0.3 0.9
vt  0.5 0.3 0.9
vt  0.6 0.3 0.9
vt  0.7 0.4 0.9
vt  0.7 0.5 0.9
vt  0.7 0.6 0.9
vt  0.6 0.7 0.9
vt  0.5 0.9 0.7
vt  0.3 0.9 0.7
vt  0.1 0.7 0.7
vt  0.1 0.5 0.7
vt  0.1 0.3 0.7
vt  0.3 0.1 0.7
vt  0.5 0.1 0.7
vt  0.7 0.1 0.7
vt  0.9 0.3 0.7
vt  0.9 0.5 0.7
vt  0.9 0.7 0.7
vt  0.7 0.9 0.7
vt  0.5 1.0 0.5
vt  0.3 0.9 0.5
vt  0.1 0.7 0.5
vt  0.0 0.5 0.5
vt  0.1 0.3 0.5
vt  0.3 0.1 0.5
vt  0.5 0.0 0.5
vt  0.7 0.1 0.5
vt  0.9 0.3 0.5
vt  1.0 0.5 0.5
vt  0.9 0.7 0.5
vt  0.7 0.9 0.5
vt  0.5 0.9 0.3
vt  0.3 0.9 0.3
vt  0.1 0.7 0.3
vt  0.1 0.5 0.3
vt  0.1 0.3 0.3
vt  0.3 0.1 0.3
vt  0.5 0.1 0.3
vt  0.7 0.1 0.3
vt  0.9 0.3 0.3
vt  0.9 0.5 0.3
vt  0.9 0.7 0.3
vt  0.7 0.9 0.3
vt  0.5 0.7 0.1
vt  0.4 0.7 0.1
vt  0.3 0.6 0.1
vt  0.3 0.5 0.1
vt  0.3 0.4 0.1
vt  0.4 0.3 0.1
vt  0.5 0.3 0.1
vt  0.6 0.3 0.1
vt  0.7 0.4 0.1
vt  0.7 0.5 0.1
vt  0.7 0.6 0.1
vt  0.6 0.7 0.1
vt  0.5 0.5 0.0
# 62 texture vertices
vn  0.0 0.0 1.0
vn  -0.0 0.5 0.8
vn  -0.3 0.5 0.8
vn  -0.5 0.2 0.8
vn  -0.5 -0.0 0.8
vn  -0.5 -0.3 0.8
vn  -0.2 -0.5 0.8
vn  0.0 -0.5 0.8
vn  0.3 -0.5 0.8
vn  0.5 -0.2 0.8
vn  0.5 0.0 0.8
vn  0.5 0.3 0.8
vn  0.2 0.5 0.8
vn  -0.0 0.9 0.5
vn  -0.4 0.7 0.5
vn  -0.8 0.4 0.5
vn  -0.9 -0.0 0.5
vn  -0.7 -0.4 0.5
vn  -0.4 -0.8 0.5
vn  0.0 -0.9 0.5
vn  0.4 -0.7 0.5
vn  0.8 -0.4 0.5
vn  0.9 0.0 0.5
vn  0.7 0.4 0.5
vn  0.4 0.8 0.5
vn  -0.0 1.0 -0.0
vn  -0.5 0.9 -0.0
vn  -0.9 0.5 -0.0
vn  -1.0 -0.0 -0.0
vn  -0.9 -0.5 -0.0
vn  -0.5 -0.9 -0.0
vn  0.0 -1.0 -0.0
vn  0.5 -0.9 -0.0
vn  0.9 -0.5 -0.0
vn  1.0 0.0 -0.0
vn  0.9 0.5 -0.0
vn  0.5 0.9 -0.0
vn  0.0 0.9 -0.5
vn  -0.4 0.8 -0.5
vn  -0.7 0.4 -0.5
vn  -0.9 0.0 -0.5
vn  -0.8 -0.4 -0.5
vn  -0.4 -0.7 -0.5
vn  -0.0 -0.9 -0.5
vn  0.4 -0.8 -0.5
vn  0.7 -0.4 -0.5
vn  0.9 -0.0 -0.5
vn  0.8 0.4 -0.5
vn  0.4 0.7 -0.5
vn  0.0 0.5 -0.8
vn  -0.2 0.5 -0.8
vn  -0.5 0.3 -0.8
vn  -0.5 0.0 -0.8
vn  -0.5 -0.2 -0.8
vn  -0.3 -0.5 -0.8
vn  -0.0 -0.5 -0.8
vn  0.2 -0.5 -0.8
vn  0.5 -0.3 -0.8
vn  0.5 -0.0 -0.8
vn  0.5 0.2 -0.8
vn  0.3 0.5 -0.8
vn  -0.0 0.0 -1.0
# 62 vertex normals
g Sphere01
f 1/1/1 2/2/2 3/3/3
f 1/1/1 3/3/3 4/4/4
f 1/1/1 4/4/4 5/5/5
f 1/1/1 5/5/5 6/6/6
f 1/1/1 6/6/6 7/7/7
f 1/1/1 7/7/7 8/8/8
f 1/1/1 8/8/8 9/9/9
f 1/1/1 9/9/9 10/10/10
f 1/1/1 10/10/10 11/11/11
f 1/1/1 11/11/11 12/12/12
f 1/1/1 12/12/12 13/13/13
f 1/1/1 13/13/13 2/2/2
f 2/2/2 14/14/14 15/15/15
f 2/2/2 15/15/15 3/3/3
f 3/3/3 15/15/15 16/16/16
f 3/3/3 16/16/16 4/4/4
f 4/4/4 16/16/16 17/17/17
f 4/4/4 17/17/17 5/5/5
f 5/5/5 17/17/17 18/18/18
f 5/5/5 18/18/18 6/6/6
f 6/6/6 18/18/18 19/19/19
f 6/6/6 19/19/19 7/7/7
f 7/7/7 19/19/19 20/20/20
f 7/7/7 20/20/20 8/8/8
f 8/8/8 20/20/20 21/21/21
f 8/8/8 21/21/21 9/9/9
f 9/9/9 21/21/21 22/22/22
f 9/9/9 22/22/22 10/10/10
f 10/10/10 22/22/22 23/23/23
f 10/10/10 23/23/23 11/11/11
f 11/11/11 23/23/23 24/24/24
f 11/11/11 24/24/24 12/12/12
f 12/12/12 24/24/24 25/25/25
f 12/12/12 25/25/25 13/13/13
f 13/13/13 25/25/25 14/14/14
f 13/13/13 14/14/14 2/2/2
f 14/14/14 26/26/26 27/27/27
f 14/14/14 27/27/27 15/15/15
f 15/15/15 27/27/27 28/28/28
f 15/15/15 28/28/28 16/16/16
f 16/16/16 28/28/28 29/29/29
f 16/16/16 29/29/29 17/17/17
f 17/17/17 29/29/29 30/30/30
f 17/17/17 30/30/30 18/18/18
f 18/18/18 30/30/30 31/31/31
f 18/18/18 31/31/31 19/19/19
f 19/19/19 31/31/31 32/32/32
f 19/19/19 32/32/32 20/20/20
f 20/20/20 32/32/32 33/33/33
f 20/20/20 33/33/33 21/21/21
f 21/21/21 33/33/33 34/34/34
f 21/21/21 34/34/34 22/22/22
f 22/22/22 34/34/34 35/35/35
f 22/22/22 35/35/35 23/23/23
f 23/23/23 35/35/35 36/36/36
f 23/23/23 36/36/36 24/24/24
f 24/24/24 36/36/36 37/37/37
f 24/24/24 37/37/37 25/25/25
f 25/25/25 37/37/37 26/26/26
f 25/25/25 26/26/26 14/14/14
f 26/26/26 38/38/38 39/39/39
f 26/26/26 39/39/39 27/27/27
f 27/27/27 39/39/39 40/40/40
f 27/27/27 40/40/40 28/28/28
f 28/28/28 40/40/40 41/41/41
f 28/28/28 41/41/41 29/29/29
f 29/29/29 41/41/41 42/42/42
f 29/29/29 42/42/42 30/30/30
f 30/30/30 42/42/42 43/43/43
f 30/30/30 43/43/43 31/31/31
f 31/31/31 43/43/43 44/44/44
f 31/31/31 44/44/44 32/32/32
f 32/32/32 44/44/44 45/45/45
f 32/32/32 45/45/45 33/33/33
f 33/33/33 45/45/45 46/46/46
f 33/33/33 46/46/46 34/34/34
f 34/34/34 46/46/46 47/47/47
f 34/34/34 47/47/47 35/35/35
f 35/35/35 47/47/47 48/48/48
f 35/35/35 48/48/48 36/36/36
f 36/36/36 48/48/48 49/49/49
f 36/36/36 49/49/49 37/37/37
f 37/37/37 49/49/49 38/38/38
f 37/37/37 38/38/38 26/26/26
f 38/38/38 50/50/50 51/51/51
f 38/38/38 51/51/51 39/39/39
f 39/39/39 51/51/51 52/52/52
f 39/39/39 52/52/52 40/40/40
f 40/40/40 52/52/52 53/53/53
f 40/40/40 53/53/53 41/41/41
f 41/41/41 53/53/53 54/54/54
f 41/41/41 54/54/54 42/42/42
f 42/42/42 54/54/54 55/55/55
f 42/42/42 55/55/55 43/43/43
f 43/43/43 55/55/55 56/56/56
f 43/43/43 56/56/56 44/44/44
f 44/44/44 56/56/56 57/57/57
f 44/44/44 57/57/57 45/45/45
f 45/45/45 57/57/57 58/58/58
f 45/45/45 58/58/58 46/46/46
f 46/46/46 58/58/58 59/59/59
f 46/46/46 59/59/59 47/47/47
f 47/47/47 59/59/59 60/60/60
f 47/47/47 60/60/60 48/48/48
f 48/48/48 60/60/60 61/61/61
f 48/48/48 61/61/61 49/49/49
f 49/49/49 61/61/61 50/50/50
f 49/49/49 50/50/50 38/38/38
f 62/62/62 51/51/51 50/50/50
f 62/62/62 52/52/52 51/51/51
f 62/62/62 53/53/53 52/52/52
f 62/62/62 54/54/54 53/53/53
f 62/62/62 55/55/55 54/54/54
f 62/62/62 56/56/56 55/55/55
f 62/62/62 57/57/57 56/56/56
f 62/62/62 58/58/58 57/57/57
f 62/62/62 59/59/59 58/58/58
f 62/62/62 60/60/60 59/59/59
f 62/62/62 61/61/61 60/60/60
f 62/62/62 50/50/50 61/61/61
# 120 faces
end
